<svg version="1.1" id="Layer_1" xmlns="http://www.w3.org/2000/svg" xmlns:xlink="http://www.w3.org/1999/xlink" x="0px" y="0px"
	 width="100%" viewBox="0 0 350 342" enable-background="new 0 0 350 342" xml:space="preserve">
<path fill="#FFFEFF" opacity="1.000000" stroke="none" 
	d="
M239.000000,343.000000 
	C159.333344,343.000000 80.166695,343.000000 1.000032,343.000000 
	C1.000021,229.000031 1.000021,115.000069 1.000011,1.000078 
	C117.666618,1.000052 234.333237,1.000052 350.999878,1.000026 
	C350.999939,114.999931 350.999939,228.999863 350.999969,342.999878 
	C313.833344,343.000000 276.666656,343.000000 239.000000,343.000000 
M230.951050,174.938919 
	C230.791763,174.767487 230.632492,174.596039 230.716461,173.795883 
	C235.136261,167.885345 237.327026,159.764084 246.342270,158.361130 
	C247.123520,158.239548 248.078033,155.983994 248.021103,154.763107 
	C247.976486,153.806076 246.611847,152.369308 245.612335,152.148788 
	C244.592148,151.923721 242.837967,152.580444 242.204071,153.440186 
	C237.524521,159.786835 233.056168,166.288895 228.481689,172.713806 
	C228.094177,173.258041 227.417389,173.596298 226.957336,173.964371 
	C227.318512,168.679108 228.575348,163.470535 227.820251,158.572083 
	C226.283600,148.603378 230.082443,142.031647 237.844589,136.145737 
	C246.540512,129.551758 251.890808,120.409233 253.716644,108.889786 
	C244.138748,115.040756 236.613861,122.483444 231.001602,131.977402 
	C233.812256,124.142212 233.433807,114.826668 242.292999,110.290825 
	C243.045715,109.905434 243.337799,107.503128 242.941513,106.347145 
	C242.628937,105.435310 240.789627,104.330780 239.876892,104.518715 
	C238.687424,104.763618 237.219772,106.000954 236.777527,107.157562 
	C233.500397,115.727959 230.448196,124.384377 227.325348,133.013763 
	C226.422684,127.205063 225.818802,121.662933 229.378113,116.420074 
	C234.935165,108.234535 234.905228,99.282814 232.079681,90.076889 
	C229.258530,95.059578 226.689835,100.063431 225.003067,105.348740 
	C223.768127,109.218216 223.146469,113.465729 223.208176,117.530228 
	C223.353973,127.135117 224.070419,136.731354 224.556122,146.331085 
	C224.106766,146.426163 223.657410,146.521240 223.208069,146.616333 
	C218.987549,137.396027 212.779022,129.933090 204.171890,123.937607 
	C205.175629,138.226425 208.660538,151.183273 219.301712,160.396469 
	C225.349594,165.632736 225.740051,170.749588 223.431686,177.306137 
	C222.439575,180.124054 221.691193,183.028839 220.665771,185.833359 
	C220.346817,186.705719 219.481689,187.378387 218.321655,188.819382 
	C218.321655,182.241943 217.904984,176.664047 218.506882,171.198303 
	C218.785400,168.669205 219.641296,166.165741 216.807907,165.595718 
	C215.484863,165.329559 213.615067,167.781250 211.499390,169.014526 
	C211.499390,169.014526 211.005768,168.998657 210.632996,168.418839 
	C209.888458,167.272934 209.143921,166.127014 207.839523,164.119431 
	C207.016968,167.778671 206.548798,170.347839 205.856842,172.855255 
	C202.902863,183.559509 202.882156,193.899460 209.204971,203.610062 
	C209.733459,204.421722 209.998993,206.010696 209.560013,206.742996 
	C207.479553,210.213577 205.112030,213.512085 202.126602,217.940048 
	C201.353409,211.187943 200.870178,205.814072 200.027756,200.497116 
	C199.838776,199.304306 198.542023,197.648361 197.484329,197.410507 
	C196.415604,197.170197 194.444809,198.122192 193.912933,199.112457 
	C193.388824,200.088272 193.834488,201.963684 194.483139,203.078827 
	C195.072556,204.092133 196.835281,204.390869 197.513916,205.389725 
	C201.059387,210.608368 199.970657,222.388733 195.485031,227.946671 
	C193.096970,227.176834 190.631821,226.382141 187.958603,225.520370 
	C186.474625,228.884155 185.151459,231.883392 183.668503,235.244827 
	C183.066772,234.183746 182.615204,233.525330 182.297562,232.807632 
	C162.921097,189.024918 143.520279,145.252869 124.238907,101.428284 
	C122.105072,96.578308 120.131935,91.539658 119.017395,86.386681 
	C117.318848,78.533623 120.592056,74.328232 128.568024,73.274620 
	C133.620667,72.607178 138.728287,72.356010 143.785492,71.920364 
	C143.785492,69.699646 143.785492,67.801338 143.785492,65.784218 
	C114.040962,65.784218 84.612511,65.784218 54.893074,65.784218 
	C54.893074,67.913803 54.893074,69.830765 54.893074,71.978493 
	C55.892502,72.136032 56.847466,72.386147 57.810600,72.423035 
	C67.897568,72.809319 75.067192,77.861992 79.998489,86.378471 
	C82.077744,89.969406 84.130898,93.602539 85.834351,97.379562 
	C96.289795,120.562065 106.636078,143.793793 117.029289,167.004395 
	C135.380951,207.988190 153.716522,248.979279 172.183228,289.911194 
	C172.919601,291.543427 174.931671,292.600098 176.349350,293.924957 
	C177.524368,292.535461 179.142792,291.328674 179.802658,289.726929 
	C184.169159,279.128082 188.343216,268.449677 192.553452,257.786743 
	C196.071930,248.875839 199.554352,239.950714 203.028320,231.094147 
	C201.246429,230.123032 199.968185,229.426392 197.547745,228.107254 
	C200.114914,226.382858 201.865646,224.610580 203.969315,223.931335 
	C207.256775,222.869843 210.760941,222.363907 214.212479,221.947433 
	C225.356079,220.602783 234.789856,213.258057 236.472229,203.861343 
	C226.567123,208.084061 216.995956,212.164413 206.705399,216.551453 
	C212.763641,205.916000 218.259491,196.267868 223.915817,186.337982 
	C239.716110,185.063232 254.875534,173.411896 257.713013,159.107254 
	C248.549515,164.807190 239.983154,170.135696 230.951050,174.938919 
M216.403870,65.715927 
	C215.964417,67.734917 215.524979,69.753906 215.093521,71.736191 
	C219.811951,72.414597 223.645691,72.702515 227.351059,73.551056 
	C236.213058,75.580460 239.162201,79.137054 240.373016,88.118904 
	C240.529907,89.282684 241.573242,90.850151 242.603653,91.282219 
	C247.009186,93.129478 251.563843,94.621109 256.422333,96.371521 
	C261.480957,83.258751 267.953522,71.994049 284.269165,72.367645 
	C284.269165,69.914711 284.269165,68.006821 284.269165,65.598183 
	C261.762909,65.598183 239.509369,65.598183 216.403870,65.715927 
z"/>
<path fill="#CD0555" opacity="1.000000" stroke="none" 
	d="
M211.993103,169.001068 
	C213.615067,167.781250 215.484863,165.329559 216.807907,165.595718 
	C219.641296,166.165741 218.785400,168.669205 218.506882,171.198303 
	C217.904984,176.664047 218.321655,182.241943 218.321655,188.819382 
	C219.481689,187.378387 220.346817,186.705719 220.665771,185.833359 
	C221.691193,183.028839 222.439575,180.124054 223.431686,177.306137 
	C225.740051,170.749588 225.349594,165.632736 219.301712,160.396469 
	C208.660538,151.183273 205.175629,138.226425 204.171890,123.937607 
	C212.779022,129.933090 218.987549,137.396027 223.208069,146.616333 
	C223.657410,146.521240 224.106766,146.426163 224.556122,146.331085 
	C224.070419,136.731354 223.353973,127.135117 223.208176,117.530228 
	C223.146469,113.465729 223.768127,109.218216 225.003067,105.348740 
	C226.689835,100.063431 229.258530,95.059578 232.079681,90.076889 
	C234.905228,99.282814 234.935165,108.234535 229.378113,116.420074 
	C225.818802,121.662933 226.422684,127.205063 227.325348,133.013763 
	C230.448196,124.384377 233.500397,115.727959 236.777527,107.157562 
	C237.219772,106.000954 238.687424,104.763618 239.876892,104.518715 
	C240.789627,104.330780 242.628937,105.435310 242.941513,106.347145 
	C243.337799,107.503128 243.045715,109.905434 242.292999,110.290825 
	C233.433807,114.826668 233.812256,124.142212 231.001602,131.977402 
	C236.613861,122.483444 244.138748,115.040756 253.716644,108.889786 
	C251.890808,120.409233 246.540512,129.551758 237.844589,136.145737 
	C230.082443,142.031647 226.283600,148.603378 227.820251,158.572083 
	C228.575348,163.470535 227.318512,168.679108 226.957336,173.964371 
	C227.417389,173.596298 228.094177,173.258041 228.481689,172.713806 
	C233.056168,166.288895 237.524521,159.786835 242.204071,153.440186 
	C242.837967,152.580444 244.592148,151.923721 245.612335,152.148788 
	C246.611847,152.369308 247.976486,153.806076 248.021103,154.763107 
	C248.078033,155.983994 247.123520,158.239548 246.342270,158.361130 
	C237.327026,159.764084 235.136261,167.885345 230.347046,174.273727 
	C229.775818,175.073242 229.573975,175.394913 229.372162,175.716583 
	C230.053711,175.632462 230.735245,175.548325 231.416794,175.464188 
	C239.983154,170.135696 248.549515,164.807190 257.713013,159.107254 
	C254.875534,173.411896 239.716110,185.063232 223.915817,186.337982 
	C218.259491,196.267868 212.763641,205.916000 206.705399,216.551453 
	C216.995956,212.164413 226.567123,208.084061 236.472229,203.861343 
	C234.789856,213.258057 225.356079,220.602783 214.212479,221.947433 
	C210.760941,222.363907 207.256775,222.869843 203.969315,223.931335 
	C201.865646,224.610580 200.114914,226.382858 197.547745,228.107254 
	C199.968185,229.426392 201.246429,230.123032 203.028320,231.094147 
	C199.554352,239.950714 196.071930,248.875839 192.553452,257.786743 
	C188.343216,268.449677 184.169159,279.128082 179.802658,289.726929 
	C179.142792,291.328674 177.524368,292.535461 176.349350,293.924957 
	C174.931671,292.600098 172.919601,291.543427 172.183228,289.911194 
	C153.716522,248.979279 135.380951,207.988190 117.029289,167.004395 
	C106.636078,143.793793 96.289795,120.562065 85.834351,97.379562 
	C84.130898,93.602539 82.077744,89.969406 79.998489,86.378471 
	C75.067192,77.861992 67.897568,72.809319 57.810600,72.423035 
	C56.847466,72.386147 55.892502,72.136032 54.893074,71.978493 
	C54.893074,69.830765 54.893074,67.913803 54.893074,65.784218 
	C84.612511,65.784218 114.040962,65.784218 143.785492,65.784218 
	C143.785492,67.801338 143.785492,69.699646 143.785492,71.920364 
	C138.728287,72.356010 133.620667,72.607178 128.568024,73.274620 
	C120.592056,74.328232 117.318848,78.533623 119.017395,86.386681 
	C120.131935,91.539658 122.105072,96.578308 124.238907,101.428284 
	C143.520279,145.252869 162.921097,189.024918 182.297562,232.807632 
	C182.615204,233.525330 183.066772,234.183746 183.668503,235.244827 
	C185.151459,231.883392 186.474625,228.884155 187.958603,225.520370 
	C190.631821,226.382141 193.096970,227.176834 195.485031,227.946671 
	C199.970657,222.388733 201.059387,210.608368 197.513916,205.389725 
	C196.835281,204.390869 195.072556,204.092133 194.483139,203.078827 
	C193.834488,201.963684 193.388824,200.088272 193.912933,199.112457 
	C194.444809,198.122192 196.415604,197.170197 197.484329,197.410507 
	C198.542023,197.648361 199.838776,199.304306 200.027756,200.497116 
	C200.870178,205.814072 201.353409,211.187943 202.126602,217.940048 
	C205.112030,213.512085 207.479553,210.213577 209.560013,206.742996 
	C209.998993,206.010696 209.733459,204.421722 209.204971,203.610062 
	C202.882156,193.899460 202.902863,183.559509 205.856842,172.855255 
	C206.548798,170.347839 207.016968,167.778671 207.839523,164.119431 
	C209.143921,166.127014 209.888458,167.272934 210.814835,169.093323 
	C212.512161,175.086655 214.027664,180.405518 215.675934,186.190369 
	C217.442123,179.482605 217.183167,173.710632 211.993103,169.001068 
z"/>
<path fill="#CD0455" opacity="1.000000" stroke="none" 
	d="
M216.829865,65.657059 
	C239.509369,65.598183 261.762909,65.598183 284.269165,65.598183 
	C284.269165,68.006821 284.269165,69.914711 284.269165,72.367645 
	C267.953522,71.994049 261.480957,83.258751 256.422333,96.371521 
	C251.563843,94.621109 247.009186,93.129478 242.603653,91.282219 
	C241.573242,90.850151 240.529907,89.282684 240.373016,88.118904 
	C239.162201,79.137054 236.213058,75.580460 227.351059,73.551056 
	C223.645691,72.702515 219.811951,72.414597 215.093521,71.736191 
	C215.524979,69.753906 215.964417,67.734917 216.829865,65.657059 
z"/>
<path fill="#F7D8E4" opacity="1.000000" stroke="none" 
	d="
M211.746246,169.007797 
	C217.183167,173.710632 217.442123,179.482605 215.675934,186.190369 
	C214.027664,180.405518 212.512161,175.086655 211.001221,169.383224 
	C211.005768,168.998657 211.499390,169.014526 211.746246,169.007797 
z"/>
<path fill="#FFFEFF" opacity="1.000000" stroke="none" 
	d="
M231.183929,175.201553 
	C230.735245,175.548325 230.053711,175.632462 229.372162,175.716583 
	C229.573975,175.394913 229.775818,175.073242 230.225433,174.588089 
	C230.632492,174.596039 230.791763,174.767487 231.183929,175.201553 
z"/>
</svg>